<svg xmlns="http://www.w3.org/2000/svg" width="31" height="31"><path fill="#212121" d="M29.215 5.082c-.438-.437-.957-.656-1.555-.656h-2.215v-1.66c0-.762-.27-1.41-.812-1.954A2.652 2.652 0 0 0 22.68 0h-1.106c-.762 0-1.41.27-1.953.813a2.658 2.658 0 0 0-.812 1.953v1.66h-6.637v-1.66c0-.762-.274-1.41-.813-1.954A2.667 2.667 0 0 0 9.402 0H8.297c-.758 0-1.41.27-1.953.813a2.673 2.673 0 0 0-.813 1.953v1.66h-2.21c-.602 0-1.118.219-1.56.656-.437.438-.656.957-.656 1.555v22.129c0 .597.22 1.117.657 1.554.441.438.957.657 1.558.657h24.34c.598 0 1.117-.22 1.555-.657.437-.437.656-.957.656-1.554V6.636c0-.597-.219-1.116-.656-1.554ZM8.297 28.766H3.32v-4.98h4.977Zm0-6.086H3.32v-5.532h4.977Zm0-6.637H3.32v-4.98h4.977Zm-.387-7.91a.529.529 0 0 1-.164-.387v-4.98c0-.149.055-.278.164-.387a.529.529 0 0 1 .387-.164h1.105c.153 0 .282.055.391.164.11.11.164.238.164.387v4.98a.529.529 0 0 1-.164.387.531.531 0 0 1-.39.164H8.296a.529.529 0 0 1-.387-.164Zm7.027 20.633H9.402v-4.98h5.536Zm0-6.086H9.402v-5.532h5.536Zm0-6.637H9.402v-4.98h5.536Zm6.637 12.723h-5.531v-4.98h5.531Zm0-6.086h-5.531v-5.532h5.531Zm0-6.637h-5.531v-4.98h5.531Zm-.39-7.91a.529.529 0 0 1-.164-.387v-4.98c0-.149.054-.278.164-.387a.538.538 0 0 1 .39-.164h1.106c.152 0 .28.055.39.164.11.11.164.238.164.387v4.98a.529.529 0 0 1-.164.387.531.531 0 0 1-.39.164h-1.106a.538.538 0 0 1-.39-.164Zm6.476 20.633h-4.98v-4.98h4.98Zm0-6.086h-4.98v-5.532h4.98Zm0-6.637h-4.98v-4.98h4.98Zm0 0"/></svg>