<svg xmlns="http://www.w3.org/2000/svg" width="62" height="62"><path  fill="#ffffff" d="M47.145 34.64c-2.032 4.118-4.782 8.22-7.598 11.9A121.914 121.914 0 0 1 31 56.495a121.914 121.914 0 0 1-8.547-9.957c-2.816-3.68-5.566-7.781-7.598-11.898-2.05-4.157-3.23-8.051-3.23-11.391 0-10.7 8.676-19.375 19.375-19.375 10.7 0 19.375 8.676 19.375 19.375 0 3.34-1.184 7.234-3.23 11.39ZM31 62s23.25-22.035 23.25-38.75C54.25 10.41 43.84 0 31 0S7.75 10.41 7.75 23.25C7.75 39.965 31 62 31 62Zm0 0"/><path fill="#ffffff"  d="M31 31a7.749 7.749 0 0 1-7.75-7.75A7.749 7.749 0 0 1 31 15.5a7.749 7.749 0 0 1 7.75 7.75A7.749 7.749 0 0 1 31 31Zm0 3.875c6.422 0 11.625-5.203 11.625-11.625S37.422 11.625 31 11.625 19.375 16.828 19.375 23.25 24.578 34.875 31 34.875Zm0 0"/></svg>