<svg xmlns="http://www.w3.org/2000/svg" width="62" height="62"><path fill="#ffffff" d="M0 15.5a7.749 7.749 0 0 1 7.75-7.75h46.5A7.749 7.749 0 0 1 62 15.5v31a7.749 7.749 0 0 1-7.75 7.75H7.75A7.749 7.749 0 0 1 0 46.5Zm7.75-3.875A3.874 3.874 0 0 0 3.875 15.5v.84L31 32.617 58.125 16.34v-.84a3.874 3.874 0 0 0-3.875-3.875Zm50.375 9.234L39.883 31.805 58.125 43.03Zm-.133 26.645-21.855-13.45L31 37.134l-5.137-3.078L4.008 47.5a3.875 3.875 0 0 0 3.742 2.875h46.5a3.871 3.871 0 0 0 3.742-2.871ZM3.875 43.03l18.242-11.226L3.875 20.859Zm0 0"/></svg>