<svg xmlns="http://www.w3.org/2000/svg" width="62" height="62"><path fill="#ffffff" d="M14.16 5.145a2.638 2.638 0 0 0-1.914-1.008 2.617 2.617 0 0 0-2.02.765L6.22 8.914c-1.871 1.875-2.563 4.527-1.742 6.856a68.074 68.074 0 0 0 16.148 25.609 68.123 68.123 0 0 0 25.61 16.148c2.328.82 4.98.13 6.855-1.742l4.008-4.008c.535-.53.812-1.27.765-2.02a2.638 2.638 0 0 0-1.008-1.913l-8.94-6.95a2.606 2.606 0 0 0-2.247-.472l-8.488 2.117a6.757 6.757 0 0 1-6.422-1.777l-9.516-9.52a6.768 6.768 0 0 1-1.781-6.422l2.121-8.488c.2-.781.023-1.61-.473-2.246ZM7.3 1.98a6.763 6.763 0 0 1 10.122.633l6.953 8.934a6.763 6.763 0 0 1 1.219 5.789l-2.117 8.488c-.227.895.035 1.84.687 2.492l9.52 9.52a2.624 2.624 0 0 0 2.496.687l8.484-2.117a6.763 6.763 0 0 1 5.79 1.219l8.933 6.953c3.215 2.5 3.508 7.246.633 10.117l-4.008 4.008c-2.867 2.867-7.153 4.125-11.149 2.719A72.237 72.237 0 0 1 17.7 44.297 72.27 72.27 0 0 1 .574 17.137C-.828 13.145.43 8.855 3.297 5.988L7.305 1.98Zm0 0"/></svg>