<svg xmlns="http://www.w3.org/2000/svg" viewBox="0 0 54 54" style="enable-background:new 0 0 54 54" xml:space="preserve"><path style="fill:#00897b" d="M27 53C12.641 53 1 41.359 1 27S12.641 1 27 1s26 11.641 26 26-11.641 26-26 26z"/><path style="fill:#00897b" d="M27 54C12.112 54 0 41.888 0 27S12.112 0 27 0s27 12.112 27 27-12.112 27-27 27zm0-52C13.215 2 2 13.215 2 27s11.215 25 25 25 25-11.215 25-25S40.785 2 27 2z"/><path style="fill:#fff" d="M27 41.5a1 1 0 0 1-1-1v-26a1 1 0 1 1 2 0v26a1 1 0 0 1-1 1z"/><path style="fill:#fff" d="M36.293 24.207 27 14.914l-9.293 9.293-1.414-1.414L27 12.086l10.707 10.707z"/></svg>